<svg viewBox="0 0 334 40" fill="none" xmlns="http://www.w3.org/2000/svg">
  <path d="M36.23 0H29.38L11.94 17.5H5.05V0H0V40H5.05V22.5H11.92L29.38 40H36.23L16.61 20L36.23 0Z" fill="currentColor"/>
  <path d="M82.43 40H49.61V0H82.43V4.71H54.53V17.63H79.11V22.37H54.53V35.29H82.43V40Z" fill="currentColor"/>
  <path d="M118.74 0H109.66L93.41 40H98.7L103 29.28H125.21L129.53 40H135L118.74 0ZM104.9 24.52L112.78 5H115.46L123.3 24.51L104.9 24.52Z" fill="currentColor"/>
  <path d="M183.2 40L169.86 22.29C170.82 22.2504 171.774 22.1232 172.71 21.91C177.62 20.36 180.81 16.59 180.81 11.17C180.81 3.89 175.81 0 166.81 0H147.15V40H152.15V22.37H163.65L177 40H183.2ZM152.2 4.71H166.71C172.51 4.71 175.6 6.92 175.6 11.17C175.6 15.42 172.6 17.63 166.71 17.63H152.18L152.2 4.71Z" fill="currentColor"/>
  <path d="M233.09 40H228.61L202 9V40H196.95V0H201.43L228 31V0H233.05L233.09 40Z" fill="currentColor"/>
  <path d="M283.45 40H250.62V0H283.45V4.71H255.54V17.63H280.12V22.37H255.54V35.29H283.45V40Z" fill="currentColor"/>
  <path d="M316.46 23.37V40H311.25V23.31L293.62 0H299.86L313.81 18.52L327.94 0H334L316.46 23.37Z" fill="currentColor"/>
</svg>
